<svg id="Layer_1" data-name="Layer 1" xmlns="http://www.w3.org/2000/svg" viewBox="0 0 50 50"><defs><style>.cls-1{fill:#414042;}</style></defs><title>Jetwing site - icons - PNG</title><path class="cls-1" d="M38.41,15.81a.75.75,0,0,1-.56-.25,2.9,2.9,0,0,0-1.94-1,.76.76,0,0,1-.68-.88l.58-3.21a1.54,1.54,0,0,0-1.52-1.82H32.78a1.53,1.53,0,0,0-1.19.57,1.55,1.55,0,0,0-.32,1.28l.63,3.16a.69.69,0,0,1-.14.6.73.73,0,0,1-.54.29,3,3,0,0,0-2,1,.72.72,0,0,1-.82.2.75.75,0,0,1-.48-.7V9.11a3.86,3.86,0,0,1,3.86-3.86H35.3a3.87,3.87,0,0,1,3.86,3.86v6a.76.76,0,0,1-.49.7A.58.58,0,0,1,38.41,15.81ZM31.79,6.75a2.36,2.36,0,0,0-2.36,2.36v4.45a4.4,4.4,0,0,1,.85-.33l-.48-2.39a3.05,3.05,0,0,1,3-3.65h1.51a3,3,0,0,1,3,3.59l-.44,2.47a4.07,4.07,0,0,1,.82.31V9.11A2.36,2.36,0,0,0,35.3,6.75Z"/><path class="cls-1" d="M12.4,23.57H9.94a.74.74,0,0,1-.75-.75V14.5a4.93,4.93,0,0,1,4.57-4.91.75.75,0,0,1,.8.69.74.74,0,0,1-.69.8,3.44,3.44,0,0,0-3.18,3.42v7.57H12.4a.75.75,0,0,1,0,1.5Z"/><path class="cls-1" d="M23,23.57H20.52a.75.75,0,0,1,0-1.5h1.72V14.5a3.44,3.44,0,0,0-3.12-3.41.75.75,0,1,1,.13-1.49,4.93,4.93,0,0,1,4.49,4.9v8.32A.75.75,0,0,1,23,23.57Z"/><path class="cls-1" d="M19,12.17H14a.76.76,0,0,1-.74-.61L12.36,7a3.32,3.32,0,0,1,.7-2.75A3.28,3.28,0,0,1,15.61,3H17.3a3.31,3.31,0,0,1,3.26,3.9h0l-.83,4.65A.75.75,0,0,1,19,12.17Zm-4.34-1.5h3.71l.73-4a1.8,1.8,0,0,0-.4-1.48A1.82,1.82,0,0,0,17.3,4.5H15.61a1.81,1.81,0,0,0-1.77,2.16Zm5.18-3.91Z"/><path class="cls-1" d="M20.52,27H12.4a.75.75,0,0,1-.75-.75V14.61a.75.75,0,0,1,1.5,0V25.48h6.62V14.61a.75.75,0,1,1,1.5,0V26.23A.75.75,0,0,1,20.52,27Z"/><path class="cls-1" d="M21.15,44.51H11.77a.76.76,0,0,1-.75-.75V28.86a.76.76,0,0,1,.75-.75h4.69a.76.76,0,0,1,.75.75v7.25a.75.75,0,0,1-1.5,0v-6.5H12.52V43H20.4V29.61h-2a.75.75,0,0,1,0-1.5h2.78a.76.76,0,0,1,.75.75v14.9A.76.76,0,0,1,21.15,44.51Z"/><path class="cls-1" d="M23,47H9.93a.75.75,0,0,1,0-1.5H23A.75.75,0,0,1,23,47Z"/><path class="cls-1" d="M36.24,27.18H30.85a.76.76,0,0,1-.75-.66L30,25.77H27.69a.76.76,0,0,1-.75-.75V17.56a4.42,4.42,0,0,1,1.19-3,4.52,4.52,0,0,1,3-1.44.76.76,0,0,1,.78.61l.08.36h3.19l.06-.34a.75.75,0,0,1,.8-.61A4.35,4.35,0,0,1,39,14.56a4.41,4.41,0,0,1,1.16,3V25a.76.76,0,0,1-.75.75h-2.3l-.1.75A.75.75,0,0,1,36.24,27.18Zm-4.73-1.5h4.07l.09-.76a.76.76,0,0,1,.75-.65h2.21V17.56a2.9,2.9,0,0,0-.77-2,3,3,0,0,0-1.29-.84l0,.21a.76.76,0,0,1-.74.62H31.36a.75.75,0,0,1-.73-.61l-.05-.24a3,3,0,0,0-1.35.84,2.9,2.9,0,0,0-.79,2v6.71h2.23a.75.75,0,0,1,.74.65Z"/><path class="cls-1" d="M35.8,15.56H31.36a.75.75,0,0,1-.73-.61l-.83-4.11a3.05,3.05,0,0,1,3-3.65h1.51a3,3,0,0,1,3,3.59l-.75,4.16A.76.76,0,0,1,35.8,15.56ZM32,14.06h3.19l.64-3.55h0a1.54,1.54,0,0,0-1.52-1.82H32.78a1.53,1.53,0,0,0-1.19.57,1.55,1.55,0,0,0-.32,1.28Z"/><path class="cls-1" d="M30.67,25.77a.76.76,0,0,1-.75-.66L29,17.77a.75.75,0,1,1,1.49-.19l.94,7.34a.75.75,0,0,1-.65.84Z"/><path class="cls-1" d="M36.42,25.77h-.1a.75.75,0,0,1-.65-.84l.93-7.34a.75.75,0,0,1,.84-.65.74.74,0,0,1,.65.83l-.93,7.35A.75.75,0,0,1,36.42,25.77Z"/><path class="cls-1" d="M36.64,40.73h-6.2a.75.75,0,0,1-.74-.67l-1.1-11a.77.77,0,0,1,.19-.58.73.73,0,0,1,.55-.25h3.14a.75.75,0,0,1,0,1.5H30.17l.95,9.5H36l.95-9.5H35a.75.75,0,0,1,0-1.5h2.78a.73.73,0,0,1,.56.25.77.77,0,0,1,.19.58l-1.1,11A.75.75,0,0,1,36.64,40.73Z"/><path class="cls-1" d="M40.07,47H27a.75.75,0,0,1,0-1.5H40.07a.75.75,0,0,1,0,1.5Z"/><path class="cls-1" d="M32,44.51a.76.76,0,0,1-.75-.75V40a.75.75,0,0,1,1.5,0v3.78A.75.75,0,0,1,32,44.51Z"/><path class="cls-1" d="M35,44.51a.76.76,0,0,1-.75-.75V40a.75.75,0,0,1,1.5,0v3.78A.75.75,0,0,1,35,44.51Z"/></svg>