<svg id="Layer_1" data-name="Layer 1" xmlns="http://www.w3.org/2000/svg" viewBox="0 0 50 50"><defs><style>.cls-1{fill:#414042;}</style></defs><title>Jetwing site - icons - PNG</title><path class="cls-1" d="M10.83,42.42a.76.76,0,0,1-.75-.75V23.73a.75.75,0,0,1,1.5,0V41.67A.75.75,0,0,1,10.83,42.42Z"/><path class="cls-1" d="M8.62,42.42a.75.75,0,0,1-.74-.75V27.38a.74.74,0,0,1,.74-.75.75.75,0,0,1,.76.75V41.67A.76.76,0,0,1,8.62,42.42Z"/><path class="cls-1" d="M6.25,47.58a.75.75,0,0,1-.75-.75V41.67a.75.75,0,0,1,.75-.75h37.5a.75.75,0,0,1,0,1.5H7v4.41A.75.75,0,0,1,6.25,47.58Z"/><path class="cls-1" d="M37.67,42.42a.75.75,0,0,1-.75-.75V13.08H6.25a.75.75,0,1,1,0-1.5H37.67a.76.76,0,0,1,.75.75V41.67A.76.76,0,0,1,37.67,42.42Z"/><path class="cls-1" d="M10.25,13.08a.75.75,0,0,1-.36-1.41L26.81,2.51a.74.74,0,0,1,.36-.09H43.75a.75.75,0,0,1,0,1.5H27.36L10.61,13A.8.8,0,0,1,10.25,13.08Z"/><path class="cls-1" d="M23.08,45.67H6.25a.75.75,0,0,1,0-1.5H23.08a.75.75,0,0,1,0,1.5Z"/><path class="cls-1" d="M8.62,28.13A.76.76,0,0,1,8,27l2.21-3.65a.76.76,0,0,1,1-.25.74.74,0,0,1,.25,1l-2.2,3.64A.75.75,0,0,1,8.62,28.13Z"/><path class="cls-1" d="M30.66,42.42a.76.76,0,0,1-.75-.75V34.15a.78.78,0,0,1,.19-.5c.86-1,1.27-4.63,1.36-7.17H30.3c0,1.59-.21,5.21-1.87,7.82a.75.75,0,0,1-.64.35H21s-2.44.31-2.44,7a.75.75,0,0,1-1.5,0c0-8.2,3.52-8.51,3.92-8.52h6.42c1.65-3,1.42-7.33,1.42-7.37a.75.75,0,0,1,.75-.8h2.68a.77.77,0,0,1,.54.22.74.74,0,0,1,.21.54c0,.69-.11,6.58-1.56,8.67v7.26A.75.75,0,0,1,30.66,42.42Z"/></svg>