<svg id="Layer_1" data-name="Layer 1" xmlns="http://www.w3.org/2000/svg" viewBox="0 0 50 50"><defs><style>.cls-1{fill:#414042;}</style></defs><title>Jetwing site - icons - PNG</title><path class="cls-1" d="M45.45,36.06H4.55a2.17,2.17,0,0,1-2.17-2.17V28.15A2.17,2.17,0,0,1,4.55,26h40.9a2.17,2.17,0,0,1,2.17,2.17v5.74A2.17,2.17,0,0,1,45.45,36.06ZM4.55,27.48a.67.67,0,0,0-.67.67v5.74a.67.67,0,0,0,.67.67h40.9a.67.67,0,0,0,.67-.67V28.15a.67.67,0,0,0-.67-.67Z"/><path class="cls-1" d="M41.38,39.62h-33a2.68,2.68,0,0,1-2.69-2.68V35.31a.75.75,0,0,1,1.5,0v1.63a1.18,1.18,0,0,0,1.19,1.18h33a1.18,1.18,0,0,0,1.18-1.18V35.31a.75.75,0,0,1,1.5,0v1.63A2.68,2.68,0,0,1,41.38,39.62Z"/><path class="cls-1" d="M6.44,44a.75.75,0,0,1-.75-.75V35.31a.75.75,0,0,1,1.5,0v7.94A.76.76,0,0,1,6.44,44Z"/><path class="cls-1" d="M43.31,44a.76.76,0,0,1-.75-.75V35.31a.75.75,0,0,1,1.5,0v7.94A.75.75,0,0,1,43.31,44Z"/><path class="cls-1" d="M45.2,27.48a.75.75,0,0,1-.75-.75V12.84c-4.07-.2-16.32-1.07-19.41-4.43-3.1,3.36-15.34,4.23-19.42,4.43V26.73a.75.75,0,0,1-.74.75.76.76,0,0,1-.76-.75V12.12a.74.74,0,0,1,.72-.74C14.18,11,24.25,9.12,24.25,6.75A.76.76,0,0,1,25,6a.82.82,0,0,1,.82.75c0,2.37,10.07,4.25,19.41,4.63a.74.74,0,0,1,.72.74V26.73A.76.76,0,0,1,45.2,27.48Z"/><path class="cls-1" d="M17.12,27.48a.79.79,0,0,1-.53-.22.75.75,0,0,1,0-1.06L20,22.8a1.31,1.31,0,0,0,.39-.93A1.27,1.27,0,0,0,20,21l-4-4a1.33,1.33,0,0,0-1.84,0l-4,4a1.25,1.25,0,0,0-.39.92,1.26,1.26,0,0,0,.38.92l3.41,3.41a.75.75,0,0,1,0,1.06.77.77,0,0,1-1.07,0l-3.4-3.4a2.81,2.81,0,0,1,0-4l4-4a2.87,2.87,0,0,1,4,0l4,4a2.81,2.81,0,0,1,0,4l-3.4,3.4A.79.79,0,0,1,17.12,27.48Z"/><path class="cls-1" d="M33.1,27.48a.79.79,0,0,1-.54-.22l-3.4-3.4a2.81,2.81,0,0,1,0-4l4-4a2.87,2.87,0,0,1,4,0l4,4a2.82,2.82,0,0,1,0,4l-3.4,3.4a.77.77,0,0,1-1.07,0,.75.75,0,0,1,0-1.06l3.4-3.4a1.31,1.31,0,0,0,0-1.85l-4-4a1.33,1.33,0,0,0-1.84,0l-4,4a1.25,1.25,0,0,0-.39.92,1.26,1.26,0,0,0,.38.92l3.41,3.41a.75.75,0,0,1,0,1.06A.79.79,0,0,1,33.1,27.48Z"/></svg>