<svg xmlns="http://www.w3.org/2000/svg" viewBox="0 0 256 76"><defs><style>.cls-1{isolation:isolate;}.cls-2,.cls-3{fill:#fff;}.cls-3{mix-blend-mode:multiply;}</style></defs><title>Artboard 1</title><g class="cls-1"><g id="Layer_1" data-name="Layer 1"><path class="cls-2" d="M68.39,24.51a2.73,2.73,0,0,0-2.69,3c0,3,3.11,5.3,7.24,5.3A8.57,8.57,0,0,0,79,30.71c1.25-1.18,1.68-2.43,1.68-4.94,0,0-.05-18.42,0-18.59H73.21a1.9,1.9,0,0,1,.07.45,2.07,2.07,0,0,1-.06.45h1.11c1.8,0,2.44.82,2.44,3.13V27c0,3.23-1.37,4.87-4.06,4.87C71.14,31.91,70,31,70,29.74c0-.42.11-.67.57-1.46A2.79,2.79,0,0,0,71,26.85a2.52,2.52,0,0,0-2.62-2.34"/><path class="cls-2" d="M91.69,24.36c-2.22,0-3.48-1.35-3.48-3.71,0-3.16,1.23-4.91,3.48-4.91s3.49,1.64,3.49,4.18v.27c-.12,2.65-1.39,4.17-3.49,4.17M92,14.92c-5.12,0-7.93,3.16-7.93,8.89,0,5.88,3.28,9.12,9.25,9.12a12.4,12.4,0,0,0,6.18-1.6A13.72,13.72,0,0,0,103,28.44l.27-.31,0,.43a4.3,4.3,0,0,0,1,2.62,5.41,5.41,0,0,0,4.26,1.63c3.08,0,5.18-1.26,7-4.22l.22-.36.11.42a4.19,4.19,0,0,0,1.62,2.46,7.66,7.66,0,0,0,5.12,1.74,7.81,7.81,0,0,0,5.61-2l.12-.11.11.11c.11.09.21.19.32.27a9.12,9.12,0,0,0,5.63,1.74c5.22,0,8.21-3.46,8.21-9.5,0-5.47-2.33-8.36-6.73-8.36a6.92,6.92,0,0,0-2.12.32,5.84,5.84,0,0,1,0,.64v0a4.36,4.36,0,0,1,1.1-.13c2.44,0,3.53,2.35,3.53,7.62,0,6.06-1.16,8.52-4,8.52-2.22,0-3.54-1.32-3.6-4.15V15.38h-4.19v8.93c-.1,5.45-1.26,7.67-4,7.67-2.3,0-3.12-1.4-3.12-4.43V15.38h-7.18a1.64,1.64,0,0,1,.06.45,1.87,1.87,0,0,1-.05.42h1.54c.87,0,1.32.19,1.55.68a5.81,5.81,0,0,1,.21,2.17v7.7c-1.62,3.18-3.52,4.8-5.55,4.8s-3-1.45-3-4.56V16.36H110a2.72,2.72,0,0,1-.07-.49,3,3,0,0,1,.07-.49h-2.86V8l-3.87,2.46v4.94h-2.71a2.18,2.18,0,0,1,.07.49,2,2,0,0,1-.07.49h2.71V26.74l0,.05c-2.42,3.42-5.45,5.16-9,5.16-2.46,0-4.36-1-5.21-2.85-.53-1.06-.72-2.32-.81-5v-.44l.32.28a6.07,6.07,0,0,0,4.35,1.61c3.8,0,6.34-2.1,6.34-5.23S96.28,14.92,92,14.92"/><path class="cls-2" d="M186.44,15.27v1.41l-.31-.26a5.57,5.57,0,0,0-4.11-1.5c-4.23,0-7,3.46-7,8.81a11.67,11.67,0,0,0,1.25,5.51l.07.13-.09.11a5,5,0,0,1-3.46,2.08c-1.62,0-2.51-1.3-2.51-3.67V20.26c0-2.11-.28-3-1.23-3.93a5.3,5.3,0,0,0-3.8-1.33,5.93,5.93,0,0,0-4.72,2.06l-.32.34V15.34h-6.78a2.48,2.48,0,0,1,0,.42,2.15,2.15,0,0,1-.06.45h1.43c1.77,0,1.77.91,1.77,2.9V32.47h3.67V20.76c0-2.76,1.44-4.55,3.68-4.55,1.75,0,2.59,1.17,2.59,3.59v8c0,3.4,1.61,5,4.91,5a6.72,6.72,0,0,0,5.21-2.55l.13-.15.14.16a6.26,6.26,0,0,0,5.16,2.54,6.65,6.65,0,0,0,4-1.36l.28-.17v5a14.15,14.15,0,0,1-.32,2.6,3.73,3.73,0,0,1-3.64,3,2.3,2.3,0,0,1-2.59-2.16,1.45,1.45,0,0,1,.13-.59l.11-.3a3.1,3.1,0,0,0,.34-1.5,2.26,2.26,0,0,0-2.42-2.26,2.51,2.51,0,0,0-2.65,2.72c0,3,2.75,5,7,5,5.24,0,7.89-2.72,7.89-8.08V15.27Zm0,12.74c0,2.21-1.21,3.59-3.14,3.59-2.71,0-4.27-2.91-4.27-8s1.36-7.48,4.15-7.48c2.07,0,3.26,1.41,3.26,3.86Z"/><path class="cls-2" d="M143.36,15.38a2.26,2.26,0,0,1,.07.45,2.13,2.13,0,0,1-.07.42H145c1.68,0,2.28.75,2.28,2.89V32.47h3.87V15.38Z"/><path class="cls-2" d="M146.39,3.46a8.27,8.27,0,0,0-1.1,0,10.27,10.27,0,0,0-1.22.09c-2.11.32-3.68,1.37-3.82,2.77-.18,1.87,2.26,3.65,5.47,4a10.24,10.24,0,0,0,1.1,0,8,8,0,0,0,3-.59,3.54,3.54,0,0,0,1.82-1.54,2,2,0,0,0,.11-.26,1.87,1.87,0,0,0,.11-.48C152,5.55,149.59,3.78,146.39,3.46Z"/><path class="cls-3" d="M150.49,9.28c-1.77.92-4.24-.35-5.53-2.83s-.88-5.24.89-6.15,4.25.35,5.53,2.83.88,5.23-.89,6.15"/><path class="cls-2" d="M95.82,56a6.67,6.67,0,0,1-.79,3.7,3.66,3.66,0,0,1-3.28,1.37,4.34,4.34,0,0,1-1.49-.22l.34-1.52a3.3,3.3,0,0,0,1.32.22,1.74,1.74,0,0,0,1.69-.93A6,6,0,0,0,94,56V40.51h1.79Z"/><path class="cls-2" d="M111.44,56.65h-1.89l-1.67-4.31h-6.49l-1.54,4.31H98.07l6.17-16.21h1Zm-4.19-5.9-1.91-5.46c-.3-.85-.5-1.52-.62-2h0c-.13.5-.35,1.16-.64,2l-2,5.49Z"/><path class="cls-2" d="M121.83,40.51l-.74,1.67H115.7v5.46h5.39V49.3H115.7v7.35h-1.79V40.51Z"/><path class="cls-2" d="M133,40.51l-.73,1.67h-5.39v5.46h5.39V49.3h-5.39v7.35h-1.79V40.51Z"/><path class="cls-2" d="M149.67,56.65H148l-8.19-10.87a17.28,17.28,0,0,1-1.69-2.53v13.4h-1.78V40.51h1.86L146.05,51a20.58,20.58,0,0,1,1.83,2.72V40.51h1.79Z"/><path class="cls-2" d="M165.56,56.65h-1.88L162,52.34h-6.49L154,56.65h-1.78l6.17-16.21h1Zm-4.18-5.9-1.92-5.46c-.3-.85-.5-1.52-.62-2h0c-.13.5-.35,1.16-.64,2l-2,5.49Z"/><path class="cls-2" d="M120,70.34a1.07,1.07,0,1,1,1.14-1.07A1.09,1.09,0,0,1,120,70.34Z"/><path class="cls-2" d="M127.08,72.91a4.1,4.1,0,0,1-2.2-.58l.43-.65a3.3,3.3,0,0,0,1.75.51c.73,0,1.6-.32,1.6-1.1,0-1.28-1.93-1.55-2.91-2.51a1.81,1.81,0,0,1-.58-1.32c0-1,.86-1.82,2.32-1.82a4.26,4.26,0,0,1,1.78.35v.87a3.5,3.5,0,0,0-1.76-.48c-.78,0-1.46.29-1.46,1,0,1.63,3.56,1.64,3.56,3.83C129.61,72.14,128.53,72.91,127.08,72.91Z"/><path class="cls-2" d="M135.46,72.8c-1.29-1.86-2.05-3.09-2.46-3.09h-.81V72.8h-.89V65.49h1.6c1.95,0,2.72.9,2.72,2A2,2,0,0,1,134,69.43v0a25.47,25.47,0,0,1,2.48,3.35ZM133,66.25h-.77V69h.72c1,0,1.74-.61,1.74-1.39S134.24,66.25,133,66.25Z"/><path class="cls-2" d="M137.85,72.8V65.49h.89V72.8Z"/><path class="cls-2" d="M144.1,72.8V65.49H145V72h3v.76Z"/><path class="cls-2" d="M154.56,72.8l-.83-2h-3.22l-.77,2h-.92l3.07-7.33h.5l3.09,7.33Zm-2.09-5.14a7.58,7.58,0,0,1-.31-.91h0a7.14,7.14,0,0,1-.32.89l-1,2.49h2.59Z"/><path class="cls-2" d="M162.68,72.8l-4.07-4.92a6.62,6.62,0,0,1-.84-1.14h0c0,.24,0,.49,0,.88V72.8h-.89V65.49h.93l3.89,4.75a7.44,7.44,0,0,1,.92,1.23h0c0-.25,0-.5,0-.89V65.49h.89V72.8Z"/><path class="cls-2" d="M169.81,72.8l-3.21-3.3h0v3.3h-.89V65.49h.89v3.36h0l3-3.33h1.1l-3.3,3.59L171,72.8Z"/><path class="cls-2" d="M177.26,72.8l-.83-2h-3.22l-.77,2h-.91l3.06-7.33h.5l3.09,7.33Zm-2.09-5.14a7.58,7.58,0,0,1-.31-.91h0a7.14,7.14,0,0,1-.32.89l-1,2.49h2.59Z"/><path class="cls-2" d="M80.76,72.51a2.79,2.79,0,0,1-.39,1.67,1.92,1.92,0,0,1-1.64.63,2.6,2.6,0,0,1-.74-.1l.17-.69a2,2,0,0,0,.66.1.89.89,0,0,0,.84-.42,2.51,2.51,0,0,0,.21-1.18v-7h.89Z"/><path class="cls-2" d="M88.53,72.8h-.94l-.83-2H83.53l-.77,2h-.88L85,65.46h.5Zm-2.08-2.67-1-2.48a6.64,6.64,0,0,1-.3-.9h0c-.06.22-.17.52-.31.89l-1,2.49Z"/><path class="cls-2" d="M93.7,65.49l-.37.76H90.65v2.47h2.68v.75H90.65V72.8h-.89V65.49Z"/><path class="cls-2" d="M99.28,65.49l-.37.76H96.23v2.47h2.68v.75H96.23V72.8h-.89V65.49Z"/><path class="cls-2" d="M107.55,72.8h-.83l-4.07-4.92a8,8,0,0,1-.84-1.15V72.8h-.89V65.49h.93l3.9,4.75a9.58,9.58,0,0,1,.91,1.23v-6h.89Z"/><path class="cls-2" d="M115.46,72.8h-.94l-.83-2h-3.23l-.77,2h-.89l3.07-7.34h.5Zm-2.09-2.67-1-2.48a9,9,0,0,1-.31-.9h0a8.63,8.63,0,0,1-.32.89l-1,2.49Z"/></g></g></svg>