<svg xmlns="http://www.w3.org/2000/svg" viewBox="0 0 420.94 46"><defs><style>.cls-1{isolation:isolate;}.cls-2{fill:#827905;}.cls-3{fill:#eb008b;}.cls-4{fill:#ffca05;mix-blend-mode:multiply;}.cls-5{fill:#8d8a00;}</style></defs><title>Artboard 1</title><g class="cls-1"><g id="Layer_1" data-name="Layer 1"><path class="cls-2" d="M2.46,22.71A2.53,2.53,0,0,0,0,25.49c0,2.8,2.88,4.91,6.7,4.91a7.94,7.94,0,0,0,5.62-1.95c1.16-1.09,1.56-2.25,1.56-4.57,0,0,0-17.07,0-17.23H6.93A2.08,2.08,0,0,1,7,7.07a2.48,2.48,0,0,1,0,.42H8c1.67,0,2.26.76,2.26,2.9V25.05c0,3-1.27,4.51-3.77,4.51-1.45,0-2.55-.86-2.55-2,0-.39.11-.62.53-1.36a2.51,2.51,0,0,0,.44-1.32,2.33,2.33,0,0,0-2.42-2.17"/><path class="cls-2" d="M24.05,22.57c-2.05,0-3.23-1.25-3.23-3.44,0-2.93,1.15-4.54,3.23-4.54s3.23,1.52,3.23,3.86v.26c-.11,2.45-1.29,3.86-3.23,3.86m.29-8.75c-4.75,0-7.35,2.93-7.35,8.24s3,8.45,8.57,8.45A11.45,11.45,0,0,0,31.28,29a12.58,12.58,0,0,0,3.2-2.68l.26-.29,0,.4a4.09,4.09,0,0,0,.92,2.43,5,5,0,0,0,4,1.51c2.86,0,4.8-1.17,6.5-3.91l.21-.34.09.4A3.93,3.93,0,0,0,48,28.83a7.11,7.11,0,0,0,4.74,1.6,7.21,7.21,0,0,0,5.19-1.86l.11-.1.11.1.3.26a8.46,8.46,0,0,0,5.21,1.6c4.83,0,7.61-3.2,7.61-8.8,0-5.06-2.16-7.74-6.24-7.74a6.49,6.49,0,0,0-2,.29,5,5,0,0,1,0,.6v0a4.19,4.19,0,0,1,1-.13c2.26,0,3.27,2.18,3.27,7.07,0,5.61-1.08,7.89-3.71,7.89-2.06,0-3.28-1.22-3.34-3.85V14.25H56.42v8.27c-.1,5.06-1.17,7.11-3.69,7.11-2.13,0-2.89-1.3-2.89-4.11V14.25H43.19a2.48,2.48,0,0,1,.05.42,2.2,2.2,0,0,1-.05.38h1.43c.8,0,1.22.19,1.43.63a5.29,5.29,0,0,1,.2,2v7.14c-1.5,3-3.26,4.45-5.14,4.45s-2.79-1.34-2.79-4.23V15.16H41a2.32,2.32,0,0,1-.06-.46,2.32,2.32,0,0,1,.06-.45H38.32V7.39L34.73,9.67v4.58h-2.5a3.2,3.2,0,0,1,.05.45,3.17,3.17,0,0,1-.05.46h2.5v9.61l0,.05C32.45,28,29.65,29.6,26.36,29.6c-2.29,0-4.05-1-4.83-2.64-.49-1-.67-2.15-.75-4.61v-.41l.29.26a5.63,5.63,0,0,0,4,1.49c3.52,0,5.88-2,5.88-4.84s-2.66-5-6.63-5"/><path class="cls-2" d="M111.83,14.15v1.31l-.28-.25a5.19,5.19,0,0,0-3.81-1.39c-3.92,0-6.46,3.21-6.46,8.17a10.82,10.82,0,0,0,1.16,5.1l.07.13-.09.1a4.61,4.61,0,0,1-3.2,1.92c-1.5,0-2.33-1.2-2.33-3.4V18.77c0-1.95-.26-2.77-1.13-3.64a5,5,0,0,0-3.53-1.23,5.5,5.5,0,0,0-4.37,1.9l-.3.32v-1.9H81.28a2,2,0,0,1,0,.38,1.83,1.83,0,0,1-.06.42H82.6c1.63,0,1.63.84,1.63,2.68V30.08h3.41V19.24C87.64,16.67,89,15,91.05,15c1.61,0,2.4,1.09,2.4,3.33v7.38c0,3.15,1.49,4.67,4.55,4.67A6.23,6.23,0,0,0,102.82,28l.13-.15.12.16a5.83,5.83,0,0,0,4.78,2.35,6.19,6.19,0,0,0,3.73-1.26l.25-.16v4.64a12.3,12.3,0,0,1-.29,2.41,3.45,3.45,0,0,1-3.37,2.81,2.13,2.13,0,0,1-2.4-2,1.43,1.43,0,0,1,.12-.55L106,36a3,3,0,0,0,.31-1.39,2.1,2.1,0,0,0-2.24-2.09,2.33,2.33,0,0,0-2.46,2.52c0,2.79,2.55,4.59,6.49,4.59,4.85,0,7.31-2.51,7.31-7.48v-18Zm0,11.8c0,2.05-1.11,3.33-2.9,3.33-2.51,0-4-2.7-4-7.4s1.26-6.94,3.85-6.94c1.92,0,3,1.31,3,3.59Z"/><path class="cls-2" d="M71.92,14.25a1.83,1.83,0,0,1,.06.42,2.2,2.2,0,0,1,0,.38h1.46c1.57,0,2.12.71,2.12,2.69V30.08h3.58V14.25Z"/><path class="cls-3" d="M74.73,3.21a7.07,7.07,0,0,0-1,0,9.53,9.53,0,0,0-1.13.08c-2,.3-3.41,1.27-3.54,2.57-.17,1.73,2.1,3.38,5.07,3.67a8.7,8.7,0,0,0,1,0A7.31,7.31,0,0,0,77.9,9a3.35,3.35,0,0,0,1.69-1.43,2.44,2.44,0,0,0,.1-.24,2.16,2.16,0,0,0,.1-.44C80,5.14,77.69,3.5,74.73,3.21Z"/><path class="cls-4" d="M78.53,8.6c-1.64.85-3.93-.33-5.12-2.63s-.82-4.85.82-5.69S78.16.6,79.35,2.9s.82,4.85-.82,5.7"/><path class="cls-3" d="M131.19,29.94a6.65,6.65,0,0,1-.78,3.67A3.65,3.65,0,0,1,127.15,35a4.28,4.28,0,0,1-1.48-.22l.34-1.5a3.47,3.47,0,0,0,1.31.22,1.75,1.75,0,0,0,1.68-.93,6,6,0,0,0,.41-2.58V14.55h1.78Z"/><path class="cls-3" d="M146.69,30.57h-1.87l-1.66-4.27h-6.44l-1.53,4.27h-1.77l6.13-16.09h1Zm-4.15-5.85-1.91-5.43c-.29-.84-.49-1.5-.61-2h0c-.13.5-.34,1.16-.63,2l-2,5.45Z"/><path class="cls-3" d="M157,14.55l-.73,1.66h-5.35v5.42h5.35v1.65h-5.35v7.29h-1.77v-16Z"/><path class="cls-3" d="M168.13,14.55l-.73,1.66h-5.34v5.42h5.34v1.65h-5.34v7.29h-1.78v-16Z"/><path class="cls-3" d="M184.64,30.57H183l-8.13-10.79a16.85,16.85,0,0,1-1.67-2.5V30.57h-1.78v-16h1.85L181,25a19.13,19.13,0,0,1,1.82,2.7V14.55h1.78Z"/><path class="cls-3" d="M200.41,30.57h-1.87l-1.66-4.27h-6.45l-1.52,4.27h-1.77l6.13-16.09h1Zm-4.15-5.85-1.91-5.43c-.29-.84-.49-1.5-.61-2h0c-.13.5-.34,1.16-.64,2l-2,5.45Z"/><path class="cls-5" d="M129.33,43.84a2.93,2.93,0,0,1-.33,1.58,1.6,1.6,0,0,1-1.4.58,2,2,0,0,1-.64-.09l.15-.65a1.46,1.46,0,0,0,.56.09.75.75,0,0,0,.72-.39,2.54,2.54,0,0,0,.18-1.11V37.23h.76Z"/><path class="cls-5" d="M136,44.11h-.8l-.72-1.84h-2.76l-.66,1.84h-.76l2.63-6.91h.43Zm-1.78-2.52-.82-2.33a7.92,7.92,0,0,1-.26-.85h0c-.06.21-.15.5-.28.84L132,41.59Z"/><path class="cls-5" d="M140.42,37.23l-.31.71h-2.3v2.33h2.3V41h-2.3v3.13h-.76V37.23Z"/><path class="cls-5" d="M145.2,37.23l-.31.71h-2.3v2.33h2.3V41h-2.3v3.13h-.76V37.23Z"/><path class="cls-5" d="M152.29,44.11h-.7l-3.5-4.64a6.88,6.88,0,0,1-.72-1.07v5.71h-.76V37.23h.8l3.34,4.47a8.62,8.62,0,0,1,.78,1.16V37.23h.76Z"/><path class="cls-5" d="M159.07,44.11h-.81l-.71-1.84h-2.77l-.65,1.84h-.76L156,37.2h.43Zm-1.79-2.52-.81-2.33a8.43,8.43,0,0,1-.27-.85h0a7,7,0,0,1-.27.84l-.86,2.34Z"/><path class="cls-5" d="M171.59,42.43a1.58,1.58,0,0,1-.62,1.29,2.4,2.4,0,0,1-1.55.49,3.32,3.32,0,0,1-1.88-.54l.36-.61a2.54,2.54,0,0,0,1.51.48,1.73,1.73,0,0,0,.92-.24.89.89,0,0,0,.44-.8,1.46,1.46,0,0,0-.77-1.19l-1.44-.92a1.9,1.9,0,0,1-.77-1.5,1.6,1.6,0,0,1,.53-1.23,2.1,2.1,0,0,1,1.45-.48,3.32,3.32,0,0,1,1.53.33v.81a2.66,2.66,0,0,0-1.5-.43,1.52,1.52,0,0,0-.87.22.8.8,0,0,0-.38.71,1.44,1.44,0,0,0,.79,1.16l1.46.94A1.88,1.88,0,0,1,171.59,42.43Z"/><path class="cls-5" d="M177.42,44.11h-.91L175.18,42c-.35-.52-.6-.8-.73-.82h-.74v2.92H173V37.23h1.42a2.52,2.52,0,0,1,1.74.54,1.67,1.67,0,0,1,.53,1.32,1.87,1.87,0,0,1-.4,1.2,2.07,2.07,0,0,1-.94.66h0a4.66,4.66,0,0,1,.72.95C176.11,42,176.57,42.77,177.42,44.11Zm-1.6-4.94c0-.82-.49-1.23-1.45-1.23h-.66v2.57h.7a1.35,1.35,0,0,0,1-.4A1.27,1.27,0,0,0,175.82,39.17Z"/><path class="cls-5" d="M179.22,44.11h-.76V37.23h.76Z"/><path class="cls-5" d="M187,44.11h-3.37V37.23h.76V43.4H187Z"/><path class="cls-5" d="M193,44.11h-.81l-.71-1.84h-2.77l-.66,1.84h-.76l2.64-6.91h.42Zm-1.79-2.52-.82-2.33c-.12-.36-.21-.64-.26-.85h0c-.06.21-.15.5-.27.84L189,41.59Z"/><path class="cls-5" d="M199.74,44.11H199l-3.49-4.64a6.88,6.88,0,0,1-.72-1.07v5.71h-.76V37.23h.79l3.35,4.47a8.62,8.62,0,0,1,.78,1.16V37.23h.76Z"/><path class="cls-5" d="M206.05,44.11h-1L202.28,41h0v3.11h-.76V37.23h.76v3.16l2.57-3.16h.94L203,40.63Z"/><path class="cls-5" d="M212.09,44.11h-.8l-.71-1.84h-2.77l-.66,1.84h-.76L209,37.2h.43Zm-1.78-2.52-.82-2.33c-.12-.36-.21-.64-.26-.85h0c-.06.21-.15.5-.27.84l-.86,2.34Z"/><path class="cls-5" d="M163.31,41.81a.83.83,0,1,1,.8-.82A.8.8,0,0,1,163.31,41.81Z"/></g></g></svg>