<svg id="Layer_1" data-name="Layer 1" xmlns="http://www.w3.org/2000/svg" viewBox="0 0 256 76"><defs><style>.cls-1{fill:#fff;}</style></defs><title>Artboard 2 copy 2</title><path class="cls-1" d="M173.59,48h-2.1V39.39H161.1V48H159v-19h2.1v8.37h10.39V29.06h2.1Z"/><path class="cls-1" d="M196.1,38.64a9.57,9.57,0,0,1-2.85,7.2,9.86,9.86,0,0,1-13.33-.25,9.69,9.69,0,0,1-2.59-7A9.76,9.76,0,0,1,180,31.69a9.67,9.67,0,0,1,13.59,0A9.72,9.72,0,0,1,196.1,38.64Zm-2.27,0a8.07,8.07,0,0,0-1.82-5.5,6.6,6.6,0,0,0-5.29-2.21,6.71,6.71,0,0,0-5.2,2.08,8.05,8.05,0,0,0-1.91,5.63,8,8,0,0,0,1.91,5.63,7.5,7.5,0,0,0,10.39,0A8,8,0,0,0,193.83,38.64Z"/><path class="cls-1" d="M210.66,29.06l-.74,2h-5.39V48h-2.1V31H197v-2Z"/><path class="cls-1" d="M222.64,48h-9.39v-19h9.3l-.86,2h-6.33v6.34h6.33V39.3h-6.33v6.77h7.28Z"/><path class="cls-1" d="M236,48h-9.29v-19h2.1v17H236Z"/><path class="cls-1" d="M248.8,43.4A4.34,4.34,0,0,1,247.1,47a6.62,6.62,0,0,1-4.29,1.36,9.2,9.2,0,0,1-5.18-1.49l1-1.7a7,7,0,0,0,4.14,1.32,4.73,4.73,0,0,0,2.54-.66,2.46,2.46,0,0,0,1.23-2.19,4,4,0,0,0-2.13-3.28l-4-2.53a5.18,5.18,0,0,1-2.13-4.15,4.35,4.35,0,0,1,1.47-3.39,5.72,5.72,0,0,1,4-1.33,9.09,9.09,0,0,1,4.2.92v2.25a7.21,7.21,0,0,0-4.13-1.21,4.31,4.31,0,0,0-2.4.6,2.25,2.25,0,0,0-1,2c0,1.15.73,2.21,2.18,3.19l4,2.58A5.23,5.23,0,0,1,248.8,43.4Z"/><path class="cls-1" d="M163.14,62.07a1.85,1.85,0,0,1-.73,1.52,2.84,2.84,0,0,1-1.84.59,4,4,0,0,1-2.23-.65l.44-.73a3,3,0,0,0,1.78.57,2,2,0,0,0,1.09-.28,1.06,1.06,0,0,0,.53-.94,1.73,1.73,0,0,0-.92-1.41l-1.7-1.09a2.23,2.23,0,0,1-.92-1.78,1.89,1.89,0,0,1,.63-1.46,2.48,2.48,0,0,1,1.72-.57,3.83,3.83,0,0,1,1.81.4v1a3.18,3.18,0,0,0-1.78-.52,1.87,1.87,0,0,0-1,.26,1,1,0,0,0-.45.85,1.72,1.72,0,0,0,.94,1.37l1.73,1.12A2.23,2.23,0,0,1,163.14,62.07Z"/><path class="cls-1" d="M170,64.05H169l-1.57-2.48c-.42-.62-.71-1-.87-1h-.88v3.46h-.9V55.9h1.68a3,3,0,0,1,2.07.65,2,2,0,0,1,.63,1.56,2.19,2.19,0,0,1-.49,1.42,2.49,2.49,0,0,1-1.11.78h0a4.83,4.83,0,0,1,.85,1.12C168.49,61.6,169,62.47,170,64.05Zm-1.89-5.85c0-1-.57-1.45-1.72-1.45h-.78v3h.83a1.65,1.65,0,0,0,1.19-.47A1.53,1.53,0,0,0,168.15,58.2Z"/><path class="cls-1" d="M172.18,64.05h-.9V55.9h.9Z"/><path class="cls-1" d="M181.37,64.05h-4V55.9h.91v7.31h3.09Z"/><path class="cls-1" d="M188.5,64.05h-.95l-.85-2.17h-3.27l-.78,2.17h-.9l3.12-8.18h.5Zm-2.11-3-1-2.75c-.15-.43-.25-.77-.31-1h0c-.07.26-.18.59-.33,1l-1,2.77Z"/><path class="cls-1" d="M196.48,64.05h-.84l-4.14-5.49a8.61,8.61,0,0,1-.85-1.27v6.76h-.9V55.9h.94l4,5.3a9.4,9.4,0,0,1,.92,1.37V55.9h.91Z"/><path class="cls-1" d="M204,64.05h-1.2l-3.27-3.68h0v3.68h-.9V55.9h.9v3.75l3-3.75h1.12l-3.35,4Z"/><path class="cls-1" d="M211.1,64.05h-.95l-.84-2.17H206l-.78,2.17h-.9l3.12-8.18h.5Zm-2.11-3-1-2.75c-.15-.43-.25-.77-.31-1h0c-.07.26-.18.59-.32,1l-1,2.77Z"/><path class="cls-1" d="M10.25,38.7A3,3,0,0,0,7.3,42c0,3.32,3.41,5.82,7.93,5.82a9.36,9.36,0,0,0,6.64-2.31c1.38-1.29,1.85-2.66,1.85-5.41,0,0-.06-20.19,0-20.38H15.53a2.18,2.18,0,0,1,.07.49,2.49,2.49,0,0,1-.06.49h1.22c2,0,2.67.9,2.67,3.44V41.47c0,3.54-1.5,5.34-4.45,5.34-1.73,0-3-1-3-2.38,0-.46.13-.73.63-1.6a3,3,0,0,0,.52-1.57,2.76,2.76,0,0,0-2.86-2.56"/><path class="cls-1" d="M35.79,38.53c-2.43,0-3.82-1.48-3.82-4.07,0-3.46,1.35-5.37,3.82-5.37s3.82,1.79,3.82,4.57V34c-.13,2.91-1.52,4.57-3.82,4.57m.34-10.35c-5.61,0-8.7,3.46-8.7,9.75s3.6,10,10.15,10a13.6,13.6,0,0,0,6.77-1.74A15.2,15.2,0,0,0,48.13,43l.3-.34,0,.47A4.79,4.79,0,0,0,49.56,46a6,6,0,0,0,4.67,1.79c3.39,0,5.68-1.38,7.69-4.63l.25-.4.11.47a4.64,4.64,0,0,0,1.78,2.7,8.44,8.44,0,0,0,5.61,1.9,8.58,8.58,0,0,0,6.15-2.2l.13-.12.13.12.35.3a10,10,0,0,0,6.17,1.9c5.72,0,9-3.8,9-10.42,0-6-2.55-9.16-7.38-9.16a7.63,7.63,0,0,0-2.33.35,5.47,5.47,0,0,1,.06.7v0a4.64,4.64,0,0,1,1.2-.15c2.68,0,3.87,2.57,3.87,8.36,0,6.64-1.27,9.34-4.38,9.34-2.44,0-3.89-1.45-4-4.56V28.69h-4.6v9.78c-.11,6-1.38,8.42-4.36,8.42-2.52,0-3.42-1.54-3.42-4.87V28.69H58.43a2,2,0,0,1,.06.5,2.24,2.24,0,0,1-.05.45h1.69c.95,0,1.44.21,1.69.74a6.15,6.15,0,0,1,.24,2.38V41.2c-1.78,3.49-3.86,5.27-6.08,5.27s-3.31-1.59-3.31-5V29.76h3.14a1.83,1.83,0,0,1,0-1.07H52.67V20.57l-4.25,2.7v5.42h-3a2.08,2.08,0,0,1,0,1.07h3V41.14l0,.06c-2.65,3.75-6,5.65-9.86,5.65-2.7,0-4.79-1.14-5.72-3.12-.57-1.17-.79-2.54-.88-5.46v-.49l.34.31A6.66,6.66,0,0,0,37,39.86c4.17,0,7-2.31,7-5.73s-3.16-6-7.85-6"/><path class="cls-1" d="M139.66,28.56v1.56l-.33-.3a6.17,6.17,0,0,0-4.52-1.64c-4.63,0-7.63,3.79-7.63,9.66a12.68,12.68,0,0,0,1.37,6l.08.15-.11.12c-1.26,1.47-2.61,2.28-3.78,2.28-1.78,0-2.77-1.43-2.77-4V34c0-2.31-.3-3.28-1.34-4.31a5.78,5.78,0,0,0-4.16-1.46,6.53,6.53,0,0,0-5.18,2.26l-.35.38V28.65H103.5a2.07,2.07,0,0,1,.06.45,2.41,2.41,0,0,1-.06.49h1.56c1.94,0,1.94,1,1.94,3.18V47.42h4V34.59c0-3,1.58-5,4-5,1.91,0,2.84,1.29,2.84,3.95v8.73c0,3.72,1.76,5.53,5.38,5.53A7.35,7.35,0,0,0,129,45l.15-.17.15.18a6.86,6.86,0,0,0,5.65,2.79,7.39,7.39,0,0,0,4.42-1.49l.3-.19v5.49a15.57,15.57,0,0,1-.35,2.85,4.09,4.09,0,0,1-4,3.33c-1.67,0-2.84-1-2.84-2.38a1.67,1.67,0,0,1,.14-.64l.13-.33a3.5,3.5,0,0,0,.37-1.65,2.48,2.48,0,0,0-2.65-2.47,2.75,2.75,0,0,0-2.91,3c0,3.31,3,5.43,7.68,5.43,5.74,0,8.65-3,8.65-8.85V28.56Zm0,14c0,2.43-1.32,3.94-3.44,3.94-3,0-4.68-3.19-4.68-8.76s1.49-8.2,4.55-8.2c2.27,0,3.57,1.54,3.57,4.24Z"/><path class="cls-1" d="M92.43,28.69a2.13,2.13,0,0,1,.08.5,2.63,2.63,0,0,1-.07.45h1.73c1.85,0,2.51.83,2.51,3.17V47.42h4.23V28.69Z"/><path class="cls-1" d="M101.48,19.91a1.65,1.65,0,0,1-.1.47c0,.09-.07.18-.12.27a3.65,3.65,0,0,1-1.89,1.59h0c-1.81.3-4-1.06-5.18-3.39a7.1,7.1,0,0,1-.82-3,9.79,9.79,0,0,1,1.17-.09h.16a8.56,8.56,0,0,1,1,.05A8.84,8.84,0,0,1,100,17.29,3,3,0,0,1,101.48,19.91Z"/><path class="cls-1" d="M101.9,19.52A3.63,3.63,0,0,0,100.21,17a9.18,9.18,0,0,0-4.48-1.57,9.75,9.75,0,0,0-1.23-.06c-.37,0-.88.05-1.17.08a3.68,3.68,0,0,1,1.79-3.28c1.94-1,4.65.38,6,3.1A6.63,6.63,0,0,1,101.9,19.52Z"/><path class="cls-1" d="M101.48,19.91a1.65,1.65,0,0,1-.1.47c0,.09-.07.18-.12.27a3.65,3.65,0,0,1-1.89,1.59h0a8.2,8.2,0,0,1-3.16.61,9.25,9.25,0,0,1-1.18,0c-3.39-.34-6-2.19-5.8-4.12.14-1.39,1.71-2.51,4-2.85h.13a9.79,9.79,0,0,1,1.17-.09h.16a8.56,8.56,0,0,1,1,.05A8.84,8.84,0,0,1,100,17.29,3,3,0,0,1,101.48,19.91Z"/></svg>