<svg id="Layer_1" data-name="Layer 1" xmlns="http://www.w3.org/2000/svg" viewBox="0 0 50 50"><defs><style>.cls-1{fill:#414042;}</style></defs><title>Jetwing site - icons - PNG</title><path class="cls-1" d="M38.5,37H16a.75.75,0,0,1-.75-.75V19.35a.75.75,0,0,1,1.5,0V35.47H37.75V13.15a.75.75,0,1,1,1.5,0V36.22A.76.76,0,0,1,38.5,37Z"/><path class="cls-1" d="M41.63,15.28a.8.8,0,0,1-.3-.06L27.22,9l-14.1,6.2a.76.76,0,0,1-1-.39.75.75,0,0,1,.38-1L26.92,7.51a.78.78,0,0,1,.6,0l14.41,6.33a.75.75,0,0,1-.3,1.44Z"/><path class="cls-1" d="M46.92,44.85H5.58a.75.75,0,0,1-.75-.75V3.48a.75.75,0,0,1,1.5,0V43.35H46.92a.75.75,0,0,1,0,1.5Z"/><path class="cls-1" d="M8.08,4.23h-5a.75.75,0,0,1,0-1.5h5a.75.75,0,0,1,0,1.5Z"/><path class="cls-1" d="M46.92,47.27a.74.74,0,0,1-.75-.75V41.69a.75.75,0,0,1,1.5,0v4.83A.75.75,0,0,1,46.92,47.27Z"/><path class="cls-1" d="M32.63,37H21.81a.75.75,0,0,1-.75-.75V26.6c0-4,5.82-4.71,6.07-4.74h.18c.24,0,6.07.75,6.07,4.74v9.61A.75.75,0,0,1,32.63,37Zm-10.07-1.5h9.32V26.6c0-2.45-4-3.14-4.66-3.24-.65.1-4.66.79-4.66,3.24Z"/><path class="cls-1" d="M3.69,46.75a.73.73,0,0,1-.53-.22.74.74,0,0,1,0-1.06L7,41.68a.75.75,0,0,1,1.06,0,.75.75,0,0,1,0,1.06L4.22,46.53A.74.74,0,0,1,3.69,46.75Z"/></svg>